<svg width="308" id="Layer_1" data-name="Layer 1" xmlns="http://www.w3.org/2000/svg" viewBox="0 0 638 118.72"><defs><style>.cls-1{fill:#00a83b;fill-rule:evenodd;}</style></defs><title>GrabFood Logo Vector</title><path class="cls-1" d="M759.83,519.85c0-9.46-.77-19.52,8.61-25.9,12.59-8.58,32.48-1.62,32.48,15.39,0,7.45.74,13.06-1.73,19.3a20.72,20.72,0,0,1-3.77,6.1,21.26,21.26,0,0,1-24.08,4.18,17.41,17.41,0,0,1-5.93-4.26,22.82,22.82,0,0,1-5.58-14.81Zm41.09-39.44c-1.26-.84-1.83-1.78-3.41-2.83a31.53,31.53,0,0,0-4.25-2.32c-8.85-4.15-21.79-2.6-30.43.92-12.8,5.22-21.07,19.45-21.07,34.47,0,9.64-.59,16.77,3.19,25.74,8.8,20.93,33.07,26.72,51.94,19.2a31.9,31.9,0,0,0,6-3.19c4.11-2.71,4.61-3.62,7.47-6.66a17.73,17.73,0,0,0,1.92-2.68A39.93,39.93,0,0,0,819,521.17V442.94H800.92Z" transform="translate(-181 -440.64)"/><path class="cls-1" d="M608.64,541.22a24.7,24.7,0,0,1-8.75-1.78c-7.2-2.85-12.29-11.28-12.29-19.59,0-8.66-.76-16.89,5.66-23.25,13.24-13.11,36.08-5.15,36.08,15.69,0,7.79.13,16.32-5.5,22.12a20.09,20.09,0,0,1-6.14,4.7,24.73,24.73,0,0,1-9.06,2.11Zm-39.12-30.89c0,12.95-.57,20.68,6.38,32.07,9.57,15.68,33.15,20.14,49.49,13a36.22,36.22,0,0,0,6.39-3.48,28.64,28.64,0,0,0,2.75-2.18,33.34,33.34,0,0,0,10.06-14.59c4.25-12.23,4.38-34-2.82-45.09-1.58-2.45-4.13-6-6.37-7.76-1.09-.85-1.31-1.31-2.5-2.11-10-6.68-15.54-7.29-27.55-7.29-9.44,0-19.37,4.65-25.56,10.93C573.43,490.22,569.52,501,569.52,510.33Z" transform="translate(-181 -440.64)"/><path class="cls-1" d="M694.09,541.22A20.32,20.32,0,0,1,675,528.78c-2.49-6.21-1.92-10.43-1.92-17.14,0-28.23,41.74-28.89,41.74.65,0,5.66.33,10-1.51,15.25a22,22,0,0,1-4,6.87c-4,4.13-8.92,6.81-15.21,6.81ZM655,510.33v10.18c0,21.59,15.75,38.13,38.13,38.13,6.95,0,12.53-1,17.74-3.29a31.73,31.73,0,0,0,9.14-5.66c11.82-10.31,12.89-22.46,12.89-37.4,0-9.47-2.25-17.86-7.51-25a33.24,33.24,0,0,0-13-10.69c-10-5-26.15-5-36.28-.32a34.3,34.3,0,0,0-18,18.76A43.44,43.44,0,0,0,655,510.33Z" transform="translate(-181 -440.64)"/><path class="cls-1" d="M502.79,456.42V556c0,.76.23,1,1,1h16.76c.76,0,1-.23,1-1V517.55h37.14V500.13H521.53V472.85h41.09V456.42c0-.76-.23-1-1-1H503.78C503,455.43,502.79,455.66,502.79,456.42Z" transform="translate(-181 -440.64)"/><path class="cls-1" d="M181,505.39c0,12.85.41,18.33,6.35,29.48a39.4,39.4,0,0,0,2.26,3.66,42.22,42.22,0,0,0,5.44,6.39,43.3,43.3,0,0,0,13.56,9.78c13.39,6.75,33.39,6,46.28-1.06a36.8,36.8,0,0,0,7.54-4.94c.9-.81,4.69-3.75,4.69-5.18V502.76H227.67v7.89h31.56v30.24c0,1.42-3.58,3.7-4.79,4.42a34.19,34.19,0,0,1-6.34,3.19c-16.36,5.93-35.09,3.43-47.63-9-5.68-5.64-11.58-16.32-11.58-27.53,0-8.34.19-15.28,4.54-22.42l8.89-11.49c11.6-9.28,18.47-11.78,33.9-11.78A52.28,52.28,0,0,1,248,467.67l7.25,2.61c.75.36,1.56.83,2.37,1.26v-8.88c-3.42-.79-2.94-1.62-11.13-3-11.19-1.89-24.06-1-34,3.25-5.05,2.18-11.29,5.73-15.1,9.55-2.69,2.68-2.59,2.06-6,6.22a44.3,44.3,0,0,0-2.66,3.58c-.94,1.41-1.47,2.42-2.35,3.89C183.57,490.88,181,499.77,181,505.39Z" transform="translate(-181 -440.64)"/><path class="cls-1" d="M323.65,509.67c0,10-.79,16.83,3.72,25.86,1.6,3.2,5.1,8.28,7.79,10.62,9.23,8,19.21,12.65,32.5,10.15,2.28-.42,4-1.3,5.3-1.6v-7.89c-8.29,1.93-12.76,4.31-23.35-.32a25,25,0,0,1-4.66-2.57,32.42,32.42,0,0,1-7.45-7c-7-9.4-6-16-6-27.23,0-3.61,1.79-8.32,3-10.85,4-8.57,15-16.76,25.31-16.76,8.85,0,14.58,1.61,21.14,7.13a28.54,28.54,0,0,1,10.42,22.12V557h7.88V511a35.76,35.76,0,0,0-3.5-14.57c-3.14-6.23-2.89-5.33-6.41-9.71-5.6-7-17.07-12.53-26.24-12.53h-3.29C340.86,474.17,323.65,492.62,323.65,509.67Z" transform="translate(-181 -440.64)"/><path class="cls-1" d="M404.18,518.54c1.12-.74,8-9.68,9.28-11.1l9.71-10.67c8.88-8.89,14.64-14.71,28.67-14.71,7.24,0,14.57,3.78,19.53,8.74l.32.33c8.73,9.43,8.75,15.73,8.75,28.07,0,28.31-37.28,41.51-54.37,16.9-1.25-1.81-3.6-6.14-3.81-8.68-1,.26-1,.69-1.58,1.38s-.81,1-1.33,1.62c-.31.38-2.68,3.08-2.68,3.24,0,4.87,7.24,13.21,11.9,16.37,27,18.31,59.76-2,59.76-31.49V512a39.47,39.47,0,0,0-21.25-34,36,36,0,0,0-36.8,2.54l-4.92,3.63A98.74,98.74,0,0,0,414.12,495c-.61.67-.61.81-1.16,1.47s-.83.82-1.4,1.55c-.86,1.09-1.64,2.06-2.53,3.06C402.35,508.54,404.18,507.44,404.18,518.54Z" transform="translate(-181 -440.64)"/><path class="cls-1" d="M194.15,507.69v2.64c0,19.45,16,35.82,35.5,35.82,6.53,0,14.32-1.18,19.73-3.93,1-.52,4.26-2.4,4.26-3.63V515.91h-26v7.89h18.74v11.5c-6,1.41-7.29,3-16.43,3C214.18,538.26,202,525.8,202,510V507c0-8.23,5.07-15.8,9.63-19.63,9.75-8.2,22.67-9.69,35.47-6.41a27.17,27.17,0,0,1,5.74,2.15,53.68,53.68,0,0,1,4.71,3.18V476.8c-1.57-.37-3.4-1.5-5.13-2.1-13.56-4.71-28.75-4.57-41,3l-5.44,4.09C200,487.44,194.15,496.11,194.15,507.69Z" transform="translate(-181 -440.64)"/><path class="cls-1" d="M404.18,539.91c.46-.31,15.58-19.42,19.15-23.26,4-4.33,7.73-9,12.16-13.48,5.83-5.82,12.74-10.78,22.22-6.27,8.07,3.85,9.58,10.7,9.58,20,0,6.21-1.28,9.41-4.07,13-3.24,4.16-8,5.72-13.68,5.72-8.78,0-16.76-12.24-16.76-21.36-1.33.89-5.07,6.55-6.57,7.56,1.18,2.47,1.37,8.13,7.64,14.38,3.7,3.69,9.18,7.31,15,7.31,4.85,0,7.78-.13,12.17-2.29,7.33-3.61,13.79-12,13.79-20.39,0-11.59,1.19-17.62-7.63-26.54a24.94,24.94,0,0,0-16.69-7c-6.65,0-13.54,4.27-17.17,7.48-4.11,3.64-13.68,14.21-17.77,19.05-1.6,1.9-10.65,12.45-11.19,13.8C403.68,529.43,404.18,537.34,404.18,539.91Z" transform="translate(-181 -440.64)"/><path class="cls-1" d="M336.8,511.64c0,9.41-.54,16.78,7,24.24,6.71,6.65,15.59,9.48,24.62,6.7,2.74-.84,3.44-1.72,4.56-2V532c-13.39,9-28.27.2-28.27-12.49v-7.89c0-13.39,16.93-22.9,28.85-11.1,3,2.94,4.68,7,4.68,12.74V557h7.89V513.28c0-18.95-17.28-30.92-34.57-23.72a30.2,30.2,0,0,0-7.26,4.9,13.13,13.13,0,0,0-1.33,1.63C339.28,500.45,336.8,505.35,336.8,511.64Z" transform="translate(-181 -440.64)"/><path class="cls-1" d="M275.34,511v46h7.88V511c0-10.81,6.38-22.05,16.24-26.16,7.78-3.25,17.08-4,25-.66a15.06,15.06,0,0,0,2.77,1.18c.52-1.94,4.45-4.44,4.93-6.24-.57-.16-4.18-2.21-7.51-3.34-4.82-1.62-8.42-1.59-13.53-1.59a36.36,36.36,0,0,0-29.25,15.77A38.16,38.16,0,0,0,275.34,511Z" transform="translate(-181 -440.64)"/><path class="cls-1" d="M288.48,513.94V556c0,1.69,3.25,1,7.89,1V513.61c0-12.74,8.4-20,20.62-18,1.22.2,2.41.79,3.7.9.56-1.16.92-2.16,1.54-3.4a27.23,27.23,0,0,0,1.75-3.51,13.92,13.92,0,0,1-2.34-.94c-9.05-3.38-19.91-.39-26.51,6.28C290.43,499.71,288.48,506.83,288.48,513.94Z" transform="translate(-181 -440.64)"/><path class="cls-1" d="M412.07,489.29c1.24-.83,3.66-4.6,6.92-7.22.5-.39,1-.44,1-1.33v-40.1h-7.89Z" transform="translate(-181 -440.64)"/><path class="cls-1" d="M425.22,478.11c2.12-1.12,3.59-2.79,6-4.16.77-.44,1.87-.86,1.87-1.75V440.64h-7.89Z" transform="translate(-181 -440.64)"/></svg>